<?xml version="1.0" standalone="no"?>
<!DOCTYPE svg PUBLIC "-//W3C//DTD SVG 20010904//EN"
 "http://www.w3.org/TR/2001/REC-SVG-20010904/DTD/svg10.dtd">
<svg version="1.0" xmlns="http://www.w3.org/2000/svg"
 width="100%" height="100%" viewBox="0 0 512.000000 512.000000"
 preserveAspectRatio="xMidYMid meet">

<g transform="translate(0.000000,512.000000) scale(0.100000,-0.100000)"
fill="#000000" stroke="none">
<path d="M2082 4789 c-110 -21 -234 -103 -299 -197 -229 -328 0 -773 396 -772
140 1 236 39 337 132 100 94 154 219 154 359 0 309 -282 538 -588 478z"/>
<path d="M2869 4787 c-44 -34 -47 -89 -7 -127 21 -19 34 -20 280 -20 l258 0 0
-185 0 -185 149 0 c135 0 151 -2 175 -21 20 -16 26 -29 26 -59 0 -30 -6 -43
-26 -59 -24 -19 -40 -21 -176 -21 l-149 0 3 -152 3 -153 268 -5 c251 -5 270
-6 283 -24 16 -23 18 -69 4 -96 -18 -34 -65 -40 -316 -40 l-244 0 0 -150 0
-150 149 0 c135 0 151 -2 175 -21 35 -27 36 -86 3 -117 -22 -21 -33 -22 -175
-22 l-152 0 0 -155 0 -155 263 0 c263 0 264 0 285 -23 27 -29 28 -77 3 -108
-19 -24 -19 -24 -285 -27 l-266 -3 0 -149 0 -149 156 -3 c150 -3 157 -4 175
-27 26 -32 25 -82 -4 -109 -22 -21 -33 -22 -175 -22 l-152 0 0 -155 0 -155
263 0 c263 0 264 0 285 -23 30 -32 29 -81 -3 -112 l-24 -25 -261 0 -260 0 0
-150 0 -150 134 0 c139 0 190 -10 206 -40 14 -27 12 -73 -4 -96 -13 -17 -31
-20 -173 -24 l-158 -5 -3 -152 -3 -153 259 0 c247 0 261 -1 286 -21 37 -29 37
-89 0 -118 -25 -20 -39 -21 -285 -21 l-259 0 0 -185 0 -185 -355 0 c-195 0
-355 2 -355 4 0 2 7 23 15 46 13 36 15 144 15 722 0 644 1 680 18 672 9 -4 51
-9 93 -12 61 -3 86 0 121 16 64 28 113 76 145 140 l28 57 0 540 c0 530 0 541
-22 610 -54 169 -199 306 -364 344 -27 7 -248 11 -560 11 -566 0 -563 0 -682
-63 -68 -36 -166 -137 -202 -207 -54 -106 -55 -121 -55 -701 l0 -536 31 -62
c35 -70 96 -122 166 -142 43 -11 153 -8 186 6 16 7 17 -29 17 -666 1 -624 2
-678 19 -726 l18 -53 -443 0 -443 0 -27 -23 c-37 -33 -37 -81 0 -114 l27 -23
1769 0 1769 0 28 24 28 24 0 2192 0 2192 -28 24 -28 24 -722 0 c-552 -1 -726
-4 -738 -13z"/>
</g>
</svg>
