<?xml version="1.0" standalone="no"?>
<!DOCTYPE svg PUBLIC "-//W3C//DTD SVG 20010904//EN"
 "http://www.w3.org/TR/2001/REC-SVG-20010904/DTD/svg10.dtd">
<svg version="1.0" xmlns="http://www.w3.org/2000/svg"
 width="100%" height="100%" viewBox="0 0 512.000000 512.000000"
 preserveAspectRatio="xMidYMid meet">

<g transform="translate(0.000000,512.000000) scale(0.100000,-0.100000)"
fill="#000000" stroke="none">
<path d="M800 5106 c-312 -59 -562 -246 -700 -524 -44 -91 -66 -157 -86 -267
-21 -120 -21 -3390 0 -3510 39 -213 131 -389 278 -531 147 -142 306 -222 513
-260 120 -21 3390 -21 3510 0 213 39 389 131 531 278 142 147 222 306 260 513
21 120 21 3390 0 3510 -28 150 -83 288 -163 399 -116 163 -310 305 -493 361
-153 46 -112 45 -1900 44 -1273 -1 -1701 -4 -1750 -13z m2100 -601 c405 -55
783 -210 1109 -456 85 -65 241 -208 287 -264 l36 -44 -392 -491 -392 -490
-988 0 -988 0 -392 490 -392 491 36 44 c46 56 202 199 287 264 375 283 809
442 1299 475 97 7 381 -5 490 -19z"/>
<path d="M2953 3541 c-211 -317 -383 -581 -383 -584 0 -4 114 -6 252 -5 l253
3 132 575 c72 316 131 578 130 582 -1 4 -174 -253 -384 -571z"/>
</g>
</svg>
